Simulation
nRows=19
nColumns=15
endheader
time  TH_x TH_y TH_z SC_y  SC_z  SC_x  AC_y  AC_z  AC_x  GH_y  GH_z  GH_yy  EL_x  PS_y
0.0  0.000000  0.000000  0.000000  -42.91684735435798  3.2176372772594637  18.964724216688804  45.62381647833767  -5.339880347548126  -11.945449986252994  -32.18124163714704  0.5800751156307461  57.189667582374085  22.919136569656672  120.000000
0.028900000000000006  0.000000  0.000000  0.000000  -41.51257477016483  4.592798060440592  18.26933166543034  44.86996099636192  -4.411843764259973  -10.856685272499544  -31.81579016107223  0.2864752969219346  56.96092098197803  22.775017721440516  120.000000
0.05780000000000001  0.000000  0.000000  0.000000  -40.429599840349105  5.621244788069815  17.622707648987753  44.115886936310524  -3.751398261656424  -10.17847726555148  -31.414082681961833  0.012425783299613613  56.72811858878021  22.622865624599008  120.000000
0.08670000000000001  0.000000  0.000000  0.000000  -39.71487236079202  6.33786835796978  17.108345690164867  43.38987440226062  -3.346158288087327  -9.873981060508601  -30.943593851357353  -0.2763989940822562  56.48026408734242  22.50084709798065  120.000000
0.11560000000000002  0.000000  0.000000  0.000000  -39.29441478070215  6.768126094290359  16.805579422618223  42.73352029763472  -3.1773675246395117  -9.93613423687677  -30.394181542610426  -0.5774376758759031  56.18133576042896  22.422840930372878  120.000000
0.14450000000000002  0.000000  0.000000  0.000000  -39.09936979689511  6.982738596612957  16.765832751159962  42.19367029703249  -3.238251250497393  -10.285931941512054  -29.766499887103354  -0.8600718160534058  55.780568499449686  22.377782678063685  120.000000
0.17340000000000003  0.000000  0.000000  0.000000  -39.082594242480404  7.049919475260016  17.013323816880394  41.828286513773556  -3.5106202490338174  -10.803246028601007  -29.08067738474146  -1.0791874323053308  55.20577909709286  22.346297316139374  120.000000
0.20230000000000004  0.000000  0.000000  0.000000  -39.23018094534579  7.020482687233199  17.545843731889615  41.70669683927433  -3.9624951507531097  -11.3464257949362  -28.36483143446352  -1.1892022766212649  54.3806724567152  22.29692535151552  120.000000
0.23120000000000004  0.000000  0.000000  0.000000  -39.55695112848496  6.927603977901472  18.327878110100272  41.887732010329316  -4.541422663440736  -11.775794623876164  -27.64459671174405  -1.1576217966212565  53.24466817251133  22.193658938291833  120.000000
0.26010000000000005  0.000000  0.000000  0.000000  -40.07417614890973  6.780566306652998  19.29209735734929  42.4050970641191  -5.1808882757838  -11.990582313050062  -26.936715109418174  -0.9463996394699159  51.77084490975897  22.022481467483967  120.000000
0.28900000000000003  0.000000  0.000000  0.000000  -40.74675957093965  6.577448702980215  20.333548569225854  43.233275342230186  -5.8200663473361836  -11.945538057070703  -26.230759894495993  -0.4834878505803378  49.99264251478927  21.812335966698164  120.000000
0.31790000000000007  0.000000  0.000000  0.000000  -41.464364619699104  6.34386169151127  21.314448225351306  44.254269205661465  -6.4396825752296465  -11.658523244161433  -25.479538151971454  0.3420792306728059  48.01537707493609  21.64958562365952  120.000000
0.34680000000000005  0.000000  0.000000  0.000000  -42.07212196501009  6.149468785312545  22.105453327312137  45.261197455505034  -7.068501767780005  -11.218116904639055  -24.608821585293903  1.635776453109768  45.996672358412546  21.656094044890725  120.000000
0.3757000000000001  0.000000  0.000000  0.000000  -42.45454338741444  6.069654930079661  22.64870560595955  46.03199221828788  -7.746320150806854  -10.765435765473548  -23.560996144198477  3.426877162975905  44.079617579118185  21.91472595163972  120.000000
0.40460000000000007  0.000000  0.000000  0.000000  -42.60061276014126  6.1338846492624635  22.993859270884254  46.44001371003305  -8.479743018519613  -10.443671517756647  -22.33776880301786  5.625623239567914  42.32274048866073  22.400522362627363  120.000000
0.4335000000000001  0.000000  0.000000  0.000000  -42.604605444419995  6.314124921972725  23.268657357004216  46.50974088332891  -9.227247852476387  -10.335438840944146  -20.999424236736523  8.052327939518666  40.678275016427676  22.98982736338458  120.000000
0.4624000000000001  0.000000  0.000000  0.000000  -42.61239095483828  6.557331076805761  23.62492167905084  46.382446434983706  -9.923118620945452  -10.437170817548925  -19.62784422592967  10.498213061412018  39.02354717100473  23.524701270792633  120.000000
0.49130000000000007  0.000000  0.000000  0.000000  -42.746837364461584  6.822484327408604  24.194341102794937  46.22752775071452  -10.520848805107338  -10.686565818797323  -18.28201984992664  12.789531621312372  37.22865373376578  23.879527948931614  120.000000
0.5202000000000001  0.000000  0.000000  0.000000  -43.05720732871671  7.090636118888986  25.05969831853895  46.15955412976299  -11.015882922788846  -11.021652334124582  -16.979662542200575  14.831930155996199  35.21561791767462  24.005896119722088  120.000000
